<svg width="24" height="24" viewBox="0 0 24 24" fill="none" xmlns="http://www.w3.org/2000/svg">
<rect width="24" height="24" rx="12" fill="black"/>
<path d="M5.0718 8C4.11522 7.44772 3.77441 6.20691 4.50574 5.37912C5.21859 4.57224 6.06001 3.88245 7 3.33975C8.52019 2.46206 10.2446 2 12 2C13.7554 2 15.4798 2.46206 17 3.33975C17.94 3.88245 18.7814 4.57224 19.4943 5.37912C20.2256 6.20691 19.8848 7.44771 18.9282 8C17.9716 8.55228 16.7634 8.18819 15.9285 7.46496C15.6418 7.2166 15.3311 6.99502 15 6.80385C14.0879 6.27724 13.0532 6 12 6C10.9468 6 9.91212 6.27724 9 6.80385C8.66889 6.99502 8.35816 7.2166 8.07146 7.46496C7.23659 8.18819 6.02838 8.55229 5.0718 8Z" fill="white"/>
<path d="M20 12C21.1046 12 22.0202 12.9042 21.8007 13.9868C21.4131 15.8987 20.4711 17.6711 19.0711 19.0711C17.1957 20.9464 14.6522 22 12 22C9.34784 22 6.8043 20.9464 4.92893 19.0711C3.52894 17.6711 2.58692 15.8987 2.19931 13.9868C1.97984 12.9042 2.89543 12 4 12C5.10457 12 5.96883 12.9195 6.33027 13.9632C6.62463 14.8133 7.10919 15.5945 7.75736 16.2426C8.88258 17.3679 10.4087 18 12 18C13.5913 18 15.1174 17.3679 16.2426 16.2426C16.8908 15.5945 17.3754 14.8133 17.6697 13.9632C18.0312 12.9195 18.8954 12 20 12Z" fill="white"/>
</svg>
