<svg width="24" height="24" viewBox="0 0 24 24" fill="none" xmlns="http://www.w3.org/2000/svg">
<path d="M5.20378 2.16399C3.80894 2.55047 2.61751 3.76715 2.23974 5.21285C1.92009 6.44385 1.92009 17.5514 2.23974 18.7824C2.5158 19.7987 3.02434 20.5287 3.95423 21.2015C5.00036 21.9601 5.68325 22.0603 9.9259 21.9744C14.0378 21.9029 14.5027 21.8313 16.5514 20.8436C17.5394 20.357 18.0334 19.9991 19.0214 19.0115C21.0992 16.9646 22 14.8604 22 11.9976C22 9.13486 21.0992 7.03072 19.0214 4.98383C17.6847 3.65264 16.1882 2.7938 14.4446 2.30713C13.2677 1.99223 6.23538 1.87771 5.20378 2.16399ZM13.6891 4.05343C14.9386 4.31108 16.5078 5.12697 17.5249 6.02875C18.5855 6.98778 18.6873 7.2168 18.2659 7.56033C17.5685 8.13289 16.5514 8.71976 15.7959 8.97741C14.2557 9.50702 14.3574 9.53565 13.7327 8.31897C12.9335 6.78738 11.6985 5.54207 9.57719 4.09637C9.22848 3.86735 9.27207 3.85303 10.9575 3.85303C11.931 3.85303 13.1369 3.93892 13.6891 4.05343ZM6.33709 4.78344C7.83364 5.27011 9.37377 6.11463 10.3182 6.97346C11.1754 7.74641 12.1925 9.03466 12.1925 9.34957C12.1925 9.52134 10.696 9.32094 9.35924 8.96309C6.2935 8.17583 4.01235 6.42953 4.49183 5.21285C4.73883 4.5401 5.24737 4.42559 6.33709 4.78344ZM4.73883 8.94878C6.20632 10.051 9.09771 11.0386 11.5387 11.2533L12.7011 11.3535V12.1408V12.928L11.5096 13.0282C9.11224 13.2143 5.82855 14.3594 4.60806 15.4187C4.31747 15.662 4.05594 15.8624 3.99782 15.8624C3.95423 15.8624 3.91064 14.1877 3.91064 12.1408C3.91064 10.0939 3.9397 8.41917 3.98329 8.41917C4.02688 8.41917 4.36106 8.64819 4.73883 8.94878ZM19.9223 10.008C20.3291 11.5396 20.1693 13.9586 19.6026 15.0179C19.4573 15.2755 19.4137 15.2755 18.7744 14.7889C17.8881 14.1161 16.7548 13.5865 15.5634 13.2859C15.0258 13.1428 14.5899 12.9567 14.6044 12.8708C14.619 12.7849 14.6335 12.3698 14.648 11.9547L14.6626 11.1817L15.4471 11.01C16.3625 10.8096 18.324 9.8935 18.9488 9.36388C19.1958 9.16349 19.4573 9.02035 19.53 9.04898C19.6171 9.06329 19.7915 9.49271 19.9223 10.008ZM11.8874 15.6477C11.2481 16.9073 9.33019 18.3244 7.0781 19.2118C5.37813 19.8703 4.78242 19.8417 4.49183 19.0687C4.05594 17.9522 6.09008 16.2489 8.77806 15.4473C10.0712 15.0751 12.1053 14.7316 12.1635 14.8747C12.1925 14.9463 12.0618 15.2898 11.8874 15.6477ZM15.2583 15.0894C16.595 15.4759 18.4257 16.5495 18.4402 16.9503C18.4402 17.2652 16.7403 18.6679 15.7087 19.1975C15.1275 19.4981 14.2267 19.8273 13.6891 19.9419C12.6575 20.1566 10.3037 20.2281 10.3182 20.0421C10.3182 19.9848 10.6233 19.7415 11.0011 19.5124C12.1199 18.7967 13.5438 16.8071 14.125 15.1038C14.2412 14.8032 14.2703 14.8032 15.2583 15.0894Z" fill="white"/>
</svg>
