<svg width="36" height="36" viewBox="0 0 36 36" fill="none" xmlns="http://www.w3.org/2000/svg">
<g clip-path="url(#clip0_743_1929)">
<rect width="36" height="36" rx="18" fill="black"/>
<path opacity="0.5" d="M8.30051 12.4C6.9613 11.6268 6.48418 9.88968 7.50803 8.73077C8.50602 7.60114 9.68401 6.63543 11 5.87564C13.1283 4.64689 15.5425 4 18 4C20.4575 4 22.8717 4.64689 25 5.87564C26.316 6.63543 27.494 7.60114 28.492 8.73077C29.5158 9.88968 29.0387 11.6268 27.6995 12.4C26.3603 13.1732 24.6688 12.6635 23.5 11.6509C23.0986 11.3032 22.6636 10.993 22.2 10.7254C20.923 9.98813 19.4745 9.6 18 9.6C16.5255 9.6 15.077 9.98813 13.8 10.7254C13.3364 10.993 12.9014 11.3032 12.5 11.6509C11.3312 12.6635 9.63973 13.1732 8.30051 12.4Z" fill="white"/>
<path opacity="0.5" d="M29.2 18C30.7464 18 32.0282 19.2659 31.721 20.7815C31.1783 23.4582 29.8595 25.9395 27.8995 27.8995C25.274 30.525 21.713 32 18 32C14.287 32 10.726 30.525 8.10051 27.8995C6.14051 25.9395 4.82169 23.4582 4.27903 20.7815C3.97178 19.2659 5.2536 18 6.8 18C8.3464 18 9.55636 19.2872 10.0624 20.7485C10.4745 21.9386 11.1529 23.0323 12.0603 23.9397C13.6356 25.515 15.7722 26.4 18 26.4C20.2278 26.4 22.3644 25.515 23.9397 23.9397C24.8471 23.0323 25.5255 21.9386 25.9376 20.7485C26.4436 19.2872 27.6536 18 29.2 18Z" fill="white"/>
<path d="M35 -2C35 2.50868 33.2089 6.8327 30.0208 10.0208C26.8327 13.2089 22.5087 15 18 15C13.4913 15 9.1673 13.2089 5.97918 10.0208C2.79107 6.8327 0.999999 2.50868 0.999999 -2" stroke="white" stroke-width="2"/>
<path d="M0.999999 38C1 33.4913 2.79107 29.1673 5.97918 25.9792C9.1673 22.7911 13.4913 21 18 21C22.5087 21 26.8327 22.7911 30.0208 25.9792C33.2089 29.1673 35 33.4913 35 38" stroke="white" stroke-width="2"/>
<path d="M3.80289e-06 -1.57361e-06C4.50868 -9.82368e-07 8.8327 1.79107 12.0208 4.97918C15.2089 8.1673 17 12.4913 17 17C17 21.5087 15.2089 25.8327 12.0208 29.0208C8.8327 32.2089 4.50868 34 -1.153e-07 34" stroke="white" stroke-width="2"/>
</g>
<rect x="1" y="1" width="34" height="34" rx="17" stroke="white" stroke-width="2"/>
<defs>
<clipPath id="clip0_743_1929">
<rect width="36" height="36" rx="18" fill="white"/>
</clipPath>
</defs>
</svg>
