<svg width="22" height="22" viewBox="0 0 22 22" fill="none" xmlns="http://www.w3.org/2000/svg">
<g clip-path="url(#clip0_810_21)">
<g clip-path="url(#clip1_810_21)">
<rect width="22" height="22" rx="11" fill="black"/>
<path opacity="0.5" d="M5.07252 7.57776C4.25411 7.10525 3.96254 6.04368 4.58823 5.33546C5.19811 4.64513 5.91799 4.05497 6.72221 3.59066C8.02282 2.83975 9.49817 2.44443 11 2.44443C12.5018 2.44443 13.9772 2.83975 15.2778 3.59066C16.082 4.05497 16.8019 4.64513 17.4117 5.33546C18.0374 6.04368 17.7459 7.10525 16.9274 7.57776V7.57776C16.109 8.05027 15.0754 7.73877 14.3611 7.12001C14.1158 6.90752 13.8499 6.71794 13.5667 6.55439C12.7863 6.10384 11.9011 5.86665 11 5.86665C10.0989 5.86665 9.21368 6.10384 8.43332 6.55439C8.15003 6.71794 7.88419 6.90752 7.6389 7.12001C6.92462 7.73877 5.89093 8.05027 5.07252 7.57776V7.57776Z" fill="white"/>
<path opacity="0.5" d="M17.8445 11C18.7895 11 19.5728 11.7736 19.3851 12.6998C19.0534 14.3356 18.2475 15.8519 17.0497 17.0497C15.4452 18.6542 13.2691 19.5556 11 19.5556C8.73094 19.5556 6.5548 18.6542 4.95032 17.0497C3.75255 15.8519 2.9466 14.3356 2.61498 12.6998C2.42721 11.7736 3.21055 11 4.15557 11V11C5.10059 11 5.84001 11.7867 6.14925 12.6797C6.40109 13.4069 6.81565 14.0753 7.3702 14.6298C8.33289 15.5925 9.63857 16.1333 11 16.1333C12.3615 16.1333 13.6671 15.5925 14.6298 14.6298C15.1844 14.0753 15.5989 13.4069 15.8508 12.6797C16.16 11.7867 16.8994 11 17.8445 11V11Z" fill="white"/>
<g clip-path="url(#clip2_810_21)">
<path d="M4.03067 1.47043C5.15134 1.15257 6.61385 0.602136 8.16109 2.46702C9.68607 4.30508 10.9977 7.06238 11.7772 10.1418C12.5567 13.2212 12.7233 16.3033 12.2708 18.7022C11.8118 21.1361 10.3236 21.6821 9.2029 21.9999" stroke="white"/>
<path d="M2.74109 20.8679C2.4396 19.7427 1.91053 18.2723 3.79776 16.7524C5.65784 15.2544 8.43396 13.983 11.5244 13.2485C14.6148 12.5139 17.699 12.3923 20.0911 12.8796C22.518 13.3741 23.0423 14.8701 23.3438 15.9953" stroke="white"/>
<path d="M20.5132 1.57146C20.8147 2.69664 21.3437 4.16702 19.4565 5.68692C17.5964 7.18496 14.8203 8.45629 11.7299 9.19086C8.63946 9.92542 5.55527 10.047 3.16321 9.55969C0.736233 9.06523 0.211982 7.56924 -0.0895089 6.44406" stroke="white"/>
</g>
<rect x="0.5" y="0.5" width="21" height="21" rx="10.5" stroke="white"/>
</g>
</g>
<defs>
<clipPath id="clip0_810_21">
<rect width="22" height="22" fill="white"/>
</clipPath>
<clipPath id="clip1_810_21">
<rect width="22" height="22" rx="11" fill="white"/>
</clipPath>
<clipPath id="clip2_810_21">
<rect width="22" height="22" rx="11" fill="white"/>
</clipPath>
</defs>
</svg>
