<svg width="24" height="24" viewBox="0 0 24 24" fill="none" xmlns="http://www.w3.org/2000/svg">
<rect width="24" height="24" rx="12" fill="black"/>
<path opacity="0.5" d="M5.0718 8C4.11522 7.44772 3.77441 6.20691 4.50574 5.37912C5.21859 4.57224 6.06001 3.88245 7 3.33975C8.52019 2.46206 10.2446 2 12 2C13.7554 2 15.4798 2.46206 17 3.33975C17.94 3.88245 18.7814 4.57224 19.4943 5.37912C20.2256 6.20691 19.8848 7.44771 18.9282 8C17.9716 8.55228 16.7634 8.18819 15.9285 7.46496C15.6418 7.2166 15.3311 6.99502 15 6.80385C14.0879 6.27724 13.0532 6 12 6C10.9468 6 9.91212 6.27724 9 6.80385C8.66889 6.99502 8.35816 7.2166 8.07146 7.46496C7.23659 8.18819 6.02838 8.55229 5.0718 8Z" fill="white"/>
<path opacity="0.5" d="M20 12C21.1046 12 22.0202 12.9042 21.8007 13.9868C21.4131 15.8987 20.4711 17.6711 19.0711 19.0711C17.1957 20.9464 14.6522 22 12 22C9.34784 22 6.8043 20.9464 4.92893 19.0711C3.52894 17.6711 2.58692 15.8987 2.19931 13.9868C1.97984 12.9042 2.89543 12 4 12C5.10457 12 5.96883 12.9195 6.33027 13.9632C6.62463 14.8133 7.10919 15.5945 7.75736 16.2426C8.88258 17.3679 10.4087 18 12 18C13.5913 18 15.1174 17.3679 16.2426 16.2426C16.8908 15.5945 17.3754 14.8133 17.6697 13.9632C18.0312 12.9195 18.8954 12 20 12Z" fill="white"/>
<mask id="mask0_724_23" style="mask-type:alpha" maskUnits="userSpaceOnUse" x="4" y="4" width="16" height="16">
<rect x="4" y="4" width="16" height="16" fill="#D9D9D9"/>
</mask>
<g mask="url(#mask0_724_23)">
<path d="M8.00001 18C7.50001 18 7.00557 17.8778 6.51668 17.6333C6.02779 17.3889 5.63334 17.0667 5.33334 16.6667C5.62223 16.6667 5.91668 16.5528 6.21668 16.325C6.51668 16.0972 6.66668 15.7667 6.66668 15.3333C6.66668 14.7778 6.86112 14.3056 7.25001 13.9167C7.6389 13.5278 8.11112 13.3333 8.66668 13.3333C9.22223 13.3333 9.69445 13.5278 10.0833 13.9167C10.4722 14.3056 10.6667 14.7778 10.6667 15.3333C10.6667 16.0667 10.4056 16.6944 9.88334 17.2167C9.36112 17.7389 8.73334 18 8.00001 18ZM8.00001 16.6667C8.36668 16.6667 8.68057 16.5361 8.94168 16.275C9.20279 16.0139 9.33334 15.7 9.33334 15.3333C9.33334 15.1444 9.26945 14.9861 9.14168 14.8583C9.0139 14.7306 8.85557 14.6667 8.66668 14.6667C8.47779 14.6667 8.31945 14.7306 8.19168 14.8583C8.0639 14.9861 8.00001 15.1444 8.00001 15.3333C8.00001 15.5889 7.96945 15.8222 7.90834 16.0333C7.84723 16.2444 7.76668 16.4444 7.66668 16.6333C7.72223 16.6556 7.77779 16.6667 7.83334 16.6667H8.00001ZM11.8333 14L10 12.1667L15.9667 6.2C16.0889 6.07777 16.2417 6.01388 16.425 6.00833C16.6083 6.00277 16.7667 6.06666 16.9 6.2L17.8 7.1C17.9333 7.23333 18 7.38888 18 7.56666C18 7.74444 17.9333 7.9 17.8 8.03333L11.8333 14Z" fill="white"/>
</g>
<path d="M0 1H7V10C7 11.6569 5.65685 13 4 13H0V1Z" fill="white"/>
<path d="M17 15C17 13.3431 18.3431 12 20 12H24V23H17V15Z" fill="white"/>
</svg>
