<svg width="88" height="24" viewBox="0 0 88 24" fill="none" xmlns="http://www.w3.org/2000/svg">
<circle cx="3.27273" cy="3.27273" r="3.27273" fill="white"/>
<circle cx="3.27273" cy="12" r="2.27273" stroke="white" stroke-width="2"/>
<circle cx="3.27273" cy="20.7273" r="2.77273" stroke="white"/>
<circle cx="12" cy="16.3636" r="2.52273" stroke="white" stroke-width="1.5"/>
<circle cx="12" cy="7.63637" r="2" stroke="white" stroke-width="2.54545"/>
<line x1="25" y1="5" x2="25" y2="20" stroke="white" stroke-width="2"/>
<path d="M67.9141 12.1797C67.9141 13.4661 67.6667 14.5417 67.1719 15.4062C66.6823 16.2656 65.9714 16.9141 65.0391 17.3516C64.1068 17.7839 62.9844 18 61.6719 18H58.4375V6.57812H62.0234C63.2214 6.57812 64.2604 6.79167 65.1406 7.21875C66.0208 7.64062 66.7031 8.26823 67.1875 9.10156C67.6719 9.92969 67.9141 10.9557 67.9141 12.1797ZM65.3984 12.2422C65.3984 11.3984 65.2734 10.7057 65.0234 10.1641C64.7786 9.61719 64.4141 9.21354 63.9297 8.95312C63.4505 8.69271 62.8568 8.5625 62.1484 8.5625H60.8594V16H61.8984C63.0807 16 63.9583 15.6849 64.5312 15.0547C65.1094 14.4245 65.3984 13.487 65.3984 12.2422ZM73.6953 9.10156C74.5026 9.10156 75.1979 9.25781 75.7812 9.57031C76.3646 9.8776 76.8151 10.3255 77.1328 10.9141C77.4505 11.5026 77.6094 12.2214 77.6094 13.0703V14.2266H71.9766C72.0026 14.8984 72.2031 15.4271 72.5781 15.8125C72.9583 16.1927 73.4844 16.3828 74.1562 16.3828C74.7135 16.3828 75.224 16.3255 75.6875 16.2109C76.151 16.0964 76.6276 15.9245 77.1172 15.6953V17.5391C76.6849 17.7526 76.2318 17.9089 75.7578 18.0078C75.2891 18.1068 74.7188 18.1562 74.0469 18.1562C73.1719 18.1562 72.3958 17.9948 71.7188 17.6719C71.0469 17.349 70.5182 16.8568 70.1328 16.1953C69.7526 15.5339 69.5625 14.7005 69.5625 13.6953C69.5625 12.6745 69.7344 11.8255 70.0781 11.1484C70.4271 10.4661 70.9115 9.95573 71.5312 9.61719C72.151 9.27344 72.8724 9.10156 73.6953 9.10156ZM73.7109 10.7969C73.2474 10.7969 72.862 10.9453 72.5547 11.2422C72.2526 11.5391 72.0781 12.0052 72.0312 12.6406H75.375C75.3698 12.2865 75.3047 11.9714 75.1797 11.6953C75.0599 11.4193 74.8776 11.2005 74.6328 11.0391C74.3932 10.8776 74.0859 10.7969 73.7109 10.7969ZM78.2969 9.26562H80.9062L82.5547 14.1797C82.6068 14.3359 82.651 14.4948 82.6875 14.6562C82.724 14.8177 82.7552 14.9844 82.7812 15.1562C82.8073 15.3281 82.8281 15.5078 82.8438 15.6953H82.8906C82.9219 15.4141 82.9635 15.151 83.0156 14.9062C83.0729 14.6615 83.1432 14.4193 83.2266 14.1797L84.8438 9.26562H87.3984L83.7031 19.1172C83.4792 19.7214 83.1875 20.224 82.8281 20.625C82.4688 21.0312 82.0547 21.3359 81.5859 21.5391C81.1224 21.7422 80.612 21.8438 80.0547 21.8438C79.7839 21.8438 79.5495 21.8281 79.3516 21.7969C79.1536 21.7708 78.9844 21.7422 78.8438 21.7109V19.8203C78.9531 19.8464 79.0911 19.8698 79.2578 19.8906C79.4245 19.9115 79.599 19.9219 79.7812 19.9219C80.1146 19.9219 80.401 19.8516 80.6406 19.7109C80.8802 19.5703 81.0807 19.3802 81.2422 19.1406C81.4036 18.9062 81.5312 18.6484 81.625 18.3672L81.7656 17.9375L78.2969 9.26562Z" fill="white"/>
<path d="M38.2038 2.16399C36.8089 2.55047 35.6175 3.76715 35.2397 5.21285C34.9201 6.44385 34.9201 17.5514 35.2397 18.7824C35.5158 19.7987 36.0243 20.5287 36.9542 21.2015C38.0004 21.9601 38.6833 22.0603 42.9259 21.9744C47.0378 21.9029 47.5027 21.8313 49.5514 20.8436C50.5394 20.357 51.0334 19.9991 52.0214 19.0115C54.0992 16.9646 55 14.8604 55 11.9976C55 9.13486 54.0992 7.03072 52.0214 4.98383C50.6847 3.65264 49.1882 2.7938 47.4446 2.30713C46.2677 1.99223 39.2354 1.87771 38.2038 2.16399ZM46.6891 4.05343C47.9386 4.31108 49.5078 5.12697 50.5249 6.02875C51.5855 6.98778 51.6873 7.2168 51.2659 7.56033C50.5685 8.13289 49.5514 8.71976 48.7959 8.97741C47.2557 9.50702 47.3574 9.53565 46.7327 8.31897C45.9335 6.78738 44.6985 5.54207 42.5772 4.09637C42.2285 3.86735 42.2721 3.85303 43.9575 3.85303C44.931 3.85303 46.1369 3.93892 46.6891 4.05343ZM39.3371 4.78344C40.8336 5.27011 42.3738 6.11463 43.3182 6.97346C44.1754 7.74641 45.1925 9.03466 45.1925 9.34957C45.1925 9.52134 43.696 9.32094 42.3592 8.96309C39.2935 8.17583 37.0124 6.42953 37.4918 5.21285C37.7388 4.5401 38.2474 4.42559 39.3371 4.78344ZM37.7388 8.94878C39.2063 10.051 42.0977 11.0386 44.5387 11.2533L45.7011 11.3535V12.1408V12.928L44.5096 13.0282C42.1122 13.2143 38.8286 14.3594 37.6081 15.4187C37.3175 15.662 37.0559 15.8624 36.9978 15.8624C36.9542 15.8624 36.9106 14.1877 36.9106 12.1408C36.9106 10.0939 36.9397 8.41917 36.9833 8.41917C37.0269 8.41917 37.3611 8.64819 37.7388 8.94878ZM52.9223 10.008C53.3291 11.5396 53.1693 13.9586 52.6026 15.0179C52.4573 15.2755 52.4137 15.2755 51.7744 14.7889C50.8881 14.1161 49.7548 13.5865 48.5634 13.2859C48.0258 13.1428 47.5899 12.9567 47.6044 12.8708C47.619 12.7849 47.6335 12.3698 47.648 11.9547L47.6626 11.1817L48.4471 11.01C49.3625 10.8096 51.324 9.8935 51.9488 9.36388C52.1958 9.16349 52.4573 9.02035 52.53 9.04898C52.6171 9.06329 52.7915 9.49271 52.9223 10.008ZM44.8874 15.6477C44.2481 16.9073 42.3302 18.3244 40.0781 19.2118C38.3781 19.8703 37.7824 19.8417 37.4918 19.0687C37.0559 17.9522 39.0901 16.2489 41.7781 15.4473C43.0712 15.0751 45.1053 14.7316 45.1635 14.8747C45.1925 14.9463 45.0618 15.2898 44.8874 15.6477ZM48.2583 15.0894C49.595 15.4759 51.4257 16.5495 51.4402 16.9503C51.4402 17.2652 49.7403 18.6679 48.7087 19.1975C48.1275 19.4981 47.2267 19.8273 46.6891 19.9419C45.6575 20.1566 43.3037 20.2281 43.3182 20.0421C43.3182 19.9848 43.6233 19.7415 44.0011 19.5124C45.1199 18.7967 46.5438 16.8071 47.125 15.1038C47.2412 14.8032 47.2703 14.8032 48.2583 15.0894Z" fill="white"/>
</svg>
