<svg width="58" height="22" viewBox="0 0 58 22" fill="none" xmlns="http://www.w3.org/2000/svg">
<g clip-path="url(#clip0_862_69)">
<g clip-path="url(#clip1_862_69)">
<rect width="22" height="22" rx="11" fill="#064E3B"/>
<g clip-path="url(#clip2_862_69)">
<path d="M4.03067 1.47043C5.15134 1.15257 6.61385 0.602136 8.16109 2.46702C9.68607 4.30508 10.9977 7.06238 11.7772 10.1418C12.5567 13.2212 12.7233 16.3033 12.2708 18.7022C11.8118 21.1361 10.3236 21.6821 9.2029 21.9999" stroke="#10B981" stroke-width="1.5"/>
<path d="M2.74109 20.8679C2.4396 19.7427 1.91053 18.2723 3.79776 16.7524C5.65784 15.2544 8.43396 13.983 11.5244 13.2485C14.6148 12.5139 17.699 12.3923 20.0911 12.8796C22.518 13.3741 23.0423 14.8701 23.3438 15.9953" stroke="#10B981" stroke-width="1.5"/>
<path d="M20.5132 1.57146C20.8147 2.69664 21.3437 4.16702 19.4565 5.68692C17.5964 7.18496 14.8203 8.45629 11.7299 9.19086C8.63946 9.92542 5.55527 10.047 3.16321 9.55969C0.736233 9.06523 0.211982 7.56924 -0.0895089 6.44406" stroke="#10B981" stroke-width="1.5"/>
</g>
<rect x="0.75" y="0.75" width="20.5" height="20.5" rx="10.25" stroke="#10B981" stroke-width="1.5"/>
</g>
</g>
<path d="M29.76 3.984C32.016 3.984 34.192 5.184 36.288 7.584C36.928 8.848 37.248 10.072 37.248 11.256C37.248 14.04 35.832 16.088 33 17.4C32.088 17.8 31.104 18 30.048 18H29.448C28.856 17.984 28.56 17.736 28.56 17.256H28.488C28.488 16.824 28.76 16.6 29.304 16.584H29.856V16.44H29.904C28.912 12.232 28.416 9.104 28.416 7.056H28.344L27.744 7.44C27.328 7.44 27.08 7.16 27 6.6C27 5.72 27.496 4.952 28.488 4.296C28.888 4.088 29.312 3.984 29.76 3.984ZM30.048 5.4H29.856V6.552C29.856 9.176 30.352 12.472 31.344 16.44H31.416C34.376 15.64 35.856 13.912 35.856 11.256C35.856 8.408 34.2 6.504 30.888 5.544C30.696 5.448 30.416 5.4 30.048 5.4ZM45.3904 4.152C45.6784 4.152 45.8784 4.4 45.9904 4.896C45.9904 5.184 45.4864 5.584 44.4784 6.096C43.2304 7.184 42.3024 9.056 41.6944 11.712V12.144C43.0864 11.456 44.0864 11.04 44.6944 10.896C44.8864 10.896 45.1184 11.064 45.3904 11.4V11.856C45.3904 12.032 44.6864 12.384 43.2784 12.912C42.2224 13.488 41.6944 13.816 41.6944 13.896V14.112C41.6944 15.008 42.2704 15.784 43.4224 16.44L44.2384 16.584C44.7664 16.584 45.5504 16.256 46.5904 15.6H46.8784C47.2144 15.76 47.3824 15.992 47.3824 16.296V16.44C46.3904 17.48 45.2944 18 44.0944 18C42.3824 18 41.1344 16.848 40.3504 14.544L38.8384 14.856C38.1024 14.744 37.7344 14.504 37.7344 14.136C37.7344 13.768 37.9504 13.504 38.3824 13.344L38.9344 13.44C39.7664 13.2 40.1824 13.024 40.1824 12.912C40.1824 10.192 41.2144 7.672 43.2784 5.352C44.3184 4.552 45.0224 4.152 45.3904 4.152ZM52.0309 2.352C52.3189 2.352 52.5669 2.6 52.7749 3.096C52.1349 4.856 51.8149 6.504 51.8149 8.04V8.856C51.8149 10.648 52.2709 11.544 53.1829 11.544C54.3509 11.544 55.1509 9.496 55.5829 5.4C55.5829 3.496 55.7509 2.544 56.0869 2.544L56.4709 2.496C56.8069 2.496 57.0069 2.768 57.0709 3.312V11.4C57.0709 16.44 56.2229 19.392 54.5269 20.256C54.2069 20.432 53.7269 20.584 53.0869 20.712C51.6789 20.712 50.0789 19.888 48.2869 18.24L48.2149 17.952C48.2149 17.584 48.4869 17.352 49.0309 17.256L50.9269 18.6C51.6629 19 52.2149 19.2 52.5829 19.2H53.2309C54.8309 19.2 55.6309 16.728 55.6309 11.784V11.496H55.4149C54.8069 12.44 54.0309 12.912 53.0869 12.912C51.9189 12.912 51.0949 12.16 50.6149 10.656C50.4549 10.064 50.3749 9.464 50.3749 8.856V8.64C50.6309 4.448 51.1829 2.352 52.0309 2.352Z" fill="#10B981"/>
<defs>
<clipPath id="clip0_862_69">
<rect width="22" height="22" fill="white"/>
</clipPath>
<clipPath id="clip1_862_69">
<rect width="22" height="22" rx="11" fill="white"/>
</clipPath>
<clipPath id="clip2_862_69">
<rect width="22" height="22" rx="11" fill="white"/>
</clipPath>
</defs>
</svg>
