<svg width="36" height="36" viewBox="0 0 36 36" fill="none" xmlns="http://www.w3.org/2000/svg">
<g clip-path="url(#clip0_801_585)">
<path d="M0 4C0 1.79086 1.79086 0 4 0H18C27.9411 0 36 8.05887 36 18V18C36 27.9411 27.9411 36 18 36H4C1.79086 36 0 34.2091 0 32V4Z" fill="white"/>
<rect x="1" y="1" width="34" height="34" rx="17" fill="black"/>
<path opacity="0.5" d="M8.30052 12.4C6.9613 11.6268 6.48418 9.88968 7.50803 8.73077C8.50602 7.60114 9.68401 6.63543 11 5.87564C13.1283 4.64689 15.5425 4 18 4C20.4575 4 22.8717 4.64689 25 5.87564C26.316 6.63543 27.494 7.60114 28.492 8.73077C29.5158 9.88968 29.0387 11.6268 27.6995 12.4V12.4C26.3603 13.1732 24.6688 12.6635 23.5 11.6509C23.0986 11.3032 22.6636 10.993 22.2 10.7254C20.923 9.98813 19.4745 9.6 18 9.6C16.5255 9.6 15.077 9.98813 13.8 10.7254C13.3364 10.993 12.9014 11.3032 12.5 11.6509C11.3312 12.6635 9.63973 13.1732 8.30052 12.4V12.4Z" fill="white"/>
<path opacity="0.5" d="M29.2 18C30.7464 18 32.0282 19.2659 31.721 20.7815C31.1783 23.4582 29.8595 25.9395 27.8995 27.8995C25.274 30.525 21.713 32 18 32C14.287 32 10.726 30.525 8.10051 27.8995C6.14051 25.9395 4.82169 23.4582 4.27903 20.7815C3.97178 19.2659 5.2536 18 6.8 18V18C8.3464 18 9.55636 19.2872 10.0624 20.7485C10.4745 21.9386 11.1529 23.0323 12.0603 23.9397C13.6356 25.515 15.7722 26.4 18 26.4C20.2278 26.4 22.3644 25.515 23.9397 23.9397C24.8471 23.0323 25.5255 21.9386 25.9376 20.7485C26.4436 19.2872 27.6536 18 29.2 18V18Z" fill="white"/>
<path d="M30 6C30.3852 7.43758 29.6408 8.84389 28.5413 9.73304C25.8046 11.9462 21.7375 13.8927 17.2235 15.1022C12.7096 16.3117 8.47666 16.699 5.00003 16.1507C2.5 15 3 15 0.999974 13" stroke="white" stroke-width="2"/>
<path d="M6 30C5.6148 28.5624 6 27.5 7.45866 26.2669C10.1954 24.0538 14.2625 22.1073 18.7764 20.8978C23.2904 19.6882 27.7859 19.3404 31.2625 19.8887C33 20.5 33.5 20.5 35 22" stroke="white" stroke-width="2"/>
<path d="M6.99997 5.00003C8.75444 4.52993 11.0447 3.71807 13.4568 6.4382C15.8341 9.11919 17.8737 13.1456 19.0795 17.6455C20.2852 22.1455 20.5321 26.6522 19.8137 30.1627C19.0849 33.7244 16.7545 34.5299 15 35" stroke="white" stroke-width="2"/>
<rect x="1" y="1" width="34" height="34" rx="17" stroke="white" stroke-width="2"/>
</g>
<defs>
<clipPath id="clip0_801_585">
<path d="M0 4C0 1.79086 1.79086 0 4 0H18C27.9411 0 36 8.05887 36 18V18C36 27.9411 27.9411 36 18 36H4C1.79086 36 0 34.2091 0 32V4Z" fill="white"/>
</clipPath>
</defs>
</svg>
